<mxfile host="app.diagrams.net" modified="2021-05-30T13:57:23.933Z" agent="5.0 (Macintosh; Intel Mac OS X 10_15_7) AppleWebKit/605.1.15 (KHTML, like Gecko) Version/14.1 Safari/605.1.15" etag="c_Ua0KMIwC8gHJSVVcbr" version="14.7.3" type="github">
  <diagram id="xVthY0LN3B20VdBljrud" name="第 1 页">
    <mxGraphModel dx="2066" dy="1202" grid="1" gridSize="10" guides="1" tooltips="1" connect="1" arrows="1" fold="1" page="1" pageScale="1" pageWidth="2339" pageHeight="3300" math="0" shadow="0">
      <root>
        <mxCell id="0" />
        <mxCell id="1" parent="0" />
        <mxCell id="ibbQbjTgb-cITDkVSMla-1" value="后端" style="rounded=0;whiteSpace=wrap;html=1;" parent="1" vertex="1">
          <mxGeometry x="1310" y="80" width="80" height="40" as="geometry" />
        </mxCell>
        <mxCell id="ibbQbjTgb-cITDkVSMla-2" value="Java后端" style="rounded=0;whiteSpace=wrap;html=1;" parent="1" vertex="1">
          <mxGeometry x="490" y="200" width="120" height="40" as="geometry" />
        </mxCell>
        <mxCell id="ibbQbjTgb-cITDkVSMla-3" value="" style="strokeWidth=2;html=1;shape=mxgraph.flowchart.annotation_2;align=left;labelPosition=right;pointerEvents=1;direction=south;" parent="1" vertex="1">
          <mxGeometry x="550" y="120" width="1600" height="80" as="geometry" />
        </mxCell>
        <mxCell id="ibbQbjTgb-cITDkVSMla-4" value="Golang后端" style="rounded=0;whiteSpace=wrap;html=1;" parent="1" vertex="1">
          <mxGeometry x="2090" y="200" width="120" height="40" as="geometry" />
        </mxCell>
        <mxCell id="ibbQbjTgb-cITDkVSMla-5" value="" style="strokeWidth=2;html=1;shape=mxgraph.flowchart.annotation_2;align=left;labelPosition=right;pointerEvents=1;direction=south;" parent="1" vertex="1">
          <mxGeometry x="290" y="520" width="520" height="80" as="geometry" />
        </mxCell>
        <mxCell id="ibbQbjTgb-cITDkVSMla-6" value="JavaSE" style="rounded=0;whiteSpace=wrap;html=1;" parent="1" vertex="1">
          <mxGeometry x="490" y="320" width="120" height="40" as="geometry" />
        </mxCell>
        <mxCell id="ibbQbjTgb-cITDkVSMla-7" value="JavaWeb" style="rounded=0;whiteSpace=wrap;html=1;" parent="1" vertex="1">
          <mxGeometry x="490" y="480" width="120" height="40" as="geometry" />
        </mxCell>
        <mxCell id="ibbQbjTgb-cITDkVSMla-8" value="" style="strokeWidth=2;html=1;shape=mxgraph.flowchart.annotation_2;align=left;labelPosition=right;pointerEvents=1;direction=north;" parent="1" vertex="1">
          <mxGeometry x="550" y="240" width="1600" height="80" as="geometry" />
        </mxCell>
        <mxCell id="ibbQbjTgb-cITDkVSMla-9" value="语言无关系列" style="rounded=0;whiteSpace=wrap;html=1;" parent="1" vertex="1">
          <mxGeometry x="1290" y="320" width="120" height="40" as="geometry" />
        </mxCell>
        <mxCell id="ibbQbjTgb-cITDkVSMla-10" value="JDBC" style="rounded=0;whiteSpace=wrap;html=1;" parent="1" vertex="1">
          <mxGeometry x="490" y="400" width="120" height="40" as="geometry" />
        </mxCell>
        <mxCell id="ibbQbjTgb-cITDkVSMla-11" value="Servlet" style="rounded=0;whiteSpace=wrap;html=1;" parent="1" vertex="1">
          <mxGeometry x="230" y="600" width="120" height="40" as="geometry" />
        </mxCell>
        <mxCell id="ibbQbjTgb-cITDkVSMla-12" value="Route" style="rounded=0;whiteSpace=wrap;html=1;" parent="1" vertex="1">
          <mxGeometry x="750" y="600" width="120" height="40" as="geometry" />
        </mxCell>
        <mxCell id="ibbQbjTgb-cITDkVSMla-13" value="SpringFrameWork" style="rounded=0;whiteSpace=wrap;html=1;" parent="1" vertex="1">
          <mxGeometry x="230" y="680" width="120" height="40" as="geometry" />
        </mxCell>
        <mxCell id="ibbQbjTgb-cITDkVSMla-14" value="SpringMVC" style="rounded=0;whiteSpace=wrap;html=1;" parent="1" vertex="1">
          <mxGeometry x="230" y="760" width="120" height="40" as="geometry" />
        </mxCell>
        <mxCell id="ibbQbjTgb-cITDkVSMla-15" value="SpringBoot" style="rounded=0;whiteSpace=wrap;html=1;" parent="1" vertex="1">
          <mxGeometry x="230" y="960" width="120" height="40" as="geometry" />
        </mxCell>
        <mxCell id="ibbQbjTgb-cITDkVSMla-16" value="SpringDataJPA" style="rounded=0;whiteSpace=wrap;html=1;" parent="1" vertex="1">
          <mxGeometry x="1450" y="960" width="120" height="40" as="geometry" />
        </mxCell>
        <mxCell id="ibbQbjTgb-cITDkVSMla-19" value="MyBatis(Plus)" style="rounded=0;whiteSpace=wrap;html=1;" parent="1" vertex="1">
          <mxGeometry x="1290" y="960" width="120" height="40" as="geometry" />
        </mxCell>
        <mxCell id="ibbQbjTgb-cITDkVSMla-23" value="MoreSpringBoot" style="rounded=0;whiteSpace=wrap;html=1;" parent="1" vertex="1">
          <mxGeometry x="560" y="1080" width="120" height="40" as="geometry" />
        </mxCell>
        <mxCell id="ibbQbjTgb-cITDkVSMla-24" value="操作系统" style="rounded=0;whiteSpace=wrap;html=1;" parent="1" vertex="1">
          <mxGeometry x="1130" y="400" width="120" height="40" as="geometry" />
        </mxCell>
        <mxCell id="ibbQbjTgb-cITDkVSMla-25" value="网络" style="rounded=0;whiteSpace=wrap;html=1;" parent="1" vertex="1">
          <mxGeometry x="1450" y="400" width="120" height="40" as="geometry" />
        </mxCell>
        <mxCell id="ibbQbjTgb-cITDkVSMla-26" value="数据库" style="rounded=0;whiteSpace=wrap;html=1;" parent="1" vertex="1">
          <mxGeometry x="1290" y="400" width="120" height="40" as="geometry" />
        </mxCell>
        <mxCell id="ibbQbjTgb-cITDkVSMla-27" value="算法/数据结构" style="rounded=0;whiteSpace=wrap;html=1;" parent="1" vertex="1">
          <mxGeometry x="970" y="400" width="120" height="40" as="geometry" />
        </mxCell>
        <mxCell id="ibbQbjTgb-cITDkVSMla-28" value="开发规范" style="rounded=0;whiteSpace=wrap;html=1;" parent="1" vertex="1">
          <mxGeometry x="1610" y="400" width="120" height="40" as="geometry" />
        </mxCell>
        <mxCell id="ibbQbjTgb-cITDkVSMla-29" value="NoSQL" style="rounded=0;whiteSpace=wrap;html=1;" parent="1" vertex="1">
          <mxGeometry x="1130" y="520" width="120" height="40" as="geometry" />
        </mxCell>
        <mxCell id="ibbQbjTgb-cITDkVSMla-30" value="SQL" style="rounded=0;whiteSpace=wrap;html=1;" parent="1" vertex="1">
          <mxGeometry x="1450" y="520" width="120" height="40" as="geometry" />
        </mxCell>
        <mxCell id="ibbQbjTgb-cITDkVSMla-31" value="MySQL" style="rounded=0;whiteSpace=wrap;html=1;" parent="1" vertex="1">
          <mxGeometry x="1450" y="600" width="120" height="40" as="geometry" />
        </mxCell>
        <mxCell id="ibbQbjTgb-cITDkVSMla-32" value="CRUD" style="rounded=0;whiteSpace=wrap;html=1;" parent="1" vertex="1">
          <mxGeometry x="1450" y="680" width="120" height="40" as="geometry" />
        </mxCell>
        <mxCell id="ibbQbjTgb-cITDkVSMla-33" value="高级特性" style="rounded=0;whiteSpace=wrap;html=1;" parent="1" vertex="1">
          <mxGeometry x="1450" y="760" width="120" height="40" as="geometry" />
        </mxCell>
        <mxCell id="ibbQbjTgb-cITDkVSMla-34" value="InnoDB" style="rounded=0;whiteSpace=wrap;html=1;" parent="1" vertex="1">
          <mxGeometry x="1450" y="840" width="120" height="40" as="geometry" />
        </mxCell>
        <mxCell id="ibbQbjTgb-cITDkVSMla-35" value="Redis" style="rounded=0;whiteSpace=wrap;html=1;" parent="1" vertex="1">
          <mxGeometry x="970" y="600" width="120" height="40" as="geometry" />
        </mxCell>
        <mxCell id="ibbQbjTgb-cITDkVSMla-36" value="MongoDB" style="rounded=0;whiteSpace=wrap;html=1;" parent="1" vertex="1">
          <mxGeometry x="1290" y="600" width="120" height="40" as="geometry" />
        </mxCell>
        <mxCell id="ibbQbjTgb-cITDkVSMla-37" value="单机模式" style="rounded=0;whiteSpace=wrap;html=1;" parent="1" vertex="1">
          <mxGeometry x="970" y="680" width="120" height="40" as="geometry" />
        </mxCell>
        <mxCell id="ibbQbjTgb-cITDkVSMla-38" value="集群模式" style="rounded=0;whiteSpace=wrap;html=1;" parent="1" vertex="1">
          <mxGeometry x="970" y="760" width="120" height="40" as="geometry" />
        </mxCell>
        <mxCell id="ibbQbjTgb-cITDkVSMla-39" value="应用场景" style="rounded=0;whiteSpace=wrap;html=1;" parent="1" vertex="1">
          <mxGeometry x="970" y="840" width="120" height="40" as="geometry" />
        </mxCell>
        <mxCell id="ibbQbjTgb-cITDkVSMla-41" value="" style="endArrow=none;html=1;entryX=0.5;entryY=1;entryDx=0;entryDy=0;strokeWidth=2;" parent="1" target="ibbQbjTgb-cITDkVSMla-39" edge="1">
          <mxGeometry width="50" height="50" relative="1" as="geometry">
            <mxPoint x="1030" y="960" as="sourcePoint" />
            <mxPoint x="780" y="820" as="targetPoint" />
          </mxGeometry>
        </mxCell>
        <mxCell id="ibbQbjTgb-cITDkVSMla-42" value="Netty" style="rounded=0;whiteSpace=wrap;html=1;" parent="1" vertex="1">
          <mxGeometry x="750" y="680" width="120" height="40" as="geometry" />
        </mxCell>
        <mxCell id="ibbQbjTgb-cITDkVSMla-43" value="ReactorProject" style="rounded=0;whiteSpace=wrap;html=1;" parent="1" vertex="1">
          <mxGeometry x="750" y="760" width="120" height="40" as="geometry" />
        </mxCell>
        <mxCell id="ibbQbjTgb-cITDkVSMla-44" value="Vert.X" style="rounded=0;whiteSpace=wrap;html=1;" parent="1" vertex="1">
          <mxGeometry x="820" y="880" width="120" height="40" as="geometry" />
        </mxCell>
        <mxCell id="ibbQbjTgb-cITDkVSMla-45" value="" style="endArrow=none;html=1;entryX=0.5;entryY=1;entryDx=0;entryDy=0;strokeWidth=2;" parent="1" edge="1">
          <mxGeometry width="50" height="50" relative="1" as="geometry">
            <mxPoint x="740" y="1040" as="sourcePoint" />
            <mxPoint x="740.16" y="880" as="targetPoint" />
          </mxGeometry>
        </mxCell>
        <mxCell id="ibbQbjTgb-cITDkVSMla-46" value="分布式/集群解决" style="rounded=0;whiteSpace=wrap;html=1;" parent="1" vertex="1">
          <mxGeometry x="560" y="1160" width="120" height="40" as="geometry" />
        </mxCell>
        <mxCell id="ibbQbjTgb-cITDkVSMla-47" value="SpringCloud" style="rounded=0;whiteSpace=wrap;html=1;" parent="1" vertex="1">
          <mxGeometry x="360" y="1680" width="120" height="40" as="geometry" />
        </mxCell>
        <mxCell id="ibbQbjTgb-cITDkVSMla-48" value="Dubbo" style="rounded=0;whiteSpace=wrap;html=1;" parent="1" vertex="1">
          <mxGeometry x="760" y="1680" width="120" height="40" as="geometry" />
        </mxCell>
        <mxCell id="ibbQbjTgb-cITDkVSMla-49" value="集群解决" style="rounded=0;whiteSpace=wrap;html=1;" parent="1" vertex="1">
          <mxGeometry x="360" y="1280" width="120" height="40" as="geometry" />
        </mxCell>
        <mxCell id="ibbQbjTgb-cITDkVSMla-50" value="Zookeeper" style="rounded=0;whiteSpace=wrap;html=1;" parent="1" vertex="1">
          <mxGeometry x="360" y="1400" width="120" height="40" as="geometry" />
        </mxCell>
        <mxCell id="ibbQbjTgb-cITDkVSMla-51" value="消息队列" style="rounded=0;whiteSpace=wrap;html=1;" parent="1" vertex="1">
          <mxGeometry x="760" y="1280" width="120" height="40" as="geometry" />
        </mxCell>
        <mxCell id="ibbQbjTgb-cITDkVSMla-52" value="RabbitMQ" style="rounded=0;whiteSpace=wrap;html=1;" parent="1" vertex="1">
          <mxGeometry x="600" y="1400" width="120" height="40" as="geometry" />
        </mxCell>
        <mxCell id="ibbQbjTgb-cITDkVSMla-53" value="ApacheKafka" style="rounded=0;whiteSpace=wrap;html=1;" parent="1" vertex="1">
          <mxGeometry x="760" y="1400" width="120" height="40" as="geometry" />
        </mxCell>
        <mxCell id="ibbQbjTgb-cITDkVSMla-54" value="ActiveMQ" style="rounded=0;whiteSpace=wrap;html=1;" parent="1" vertex="1">
          <mxGeometry x="920" y="1400" width="120" height="40" as="geometry" />
        </mxCell>
        <mxCell id="ibbQbjTgb-cITDkVSMla-55" value="Cloud五件套" style="rounded=0;whiteSpace=wrap;html=1;" parent="1" vertex="1">
          <mxGeometry x="360" y="1760" width="120" height="40" as="geometry" />
        </mxCell>
        <mxCell id="ibbQbjTgb-cITDkVSMla-56" value="Discovery(Eureka)" style="rounded=0;whiteSpace=wrap;html=1;" parent="1" vertex="1">
          <mxGeometry x="360" y="1880" width="120" height="40" as="geometry" />
        </mxCell>
        <mxCell id="ibbQbjTgb-cITDkVSMla-57" value="ConfigServer" style="rounded=0;whiteSpace=wrap;html=1;" parent="1" vertex="1">
          <mxGeometry x="200" y="1880" width="120" height="40" as="geometry" />
        </mxCell>
        <mxCell id="ibbQbjTgb-cITDkVSMla-58" value="Resilience4j" style="rounded=0;whiteSpace=wrap;html=1;" parent="1" vertex="1">
          <mxGeometry x="520" y="1880" width="120" height="40" as="geometry" />
        </mxCell>
        <mxCell id="ibbQbjTgb-cITDkVSMla-59" value="Gateway" style="rounded=0;whiteSpace=wrap;html=1;" parent="1" vertex="1">
          <mxGeometry x="40" y="1880" width="120" height="40" as="geometry" />
        </mxCell>
        <mxCell id="ibbQbjTgb-cITDkVSMla-60" value="Security" style="rounded=0;whiteSpace=wrap;html=1;" parent="1" vertex="1">
          <mxGeometry x="680" y="1880" width="120" height="40" as="geometry" />
        </mxCell>
        <mxCell id="ibbQbjTgb-cITDkVSMla-61" value="CloudStream" style="rounded=0;whiteSpace=wrap;html=1;" parent="1" vertex="1">
          <mxGeometry x="360" y="2000" width="120" height="40" as="geometry" />
        </mxCell>
        <mxCell id="ibbQbjTgb-cITDkVSMla-62" value="GolangBase" style="rounded=0;whiteSpace=wrap;html=1;" parent="1" vertex="1">
          <mxGeometry x="2090" y="320" width="120" height="40" as="geometry" />
        </mxCell>
        <mxCell id="ibbQbjTgb-cITDkVSMla-63" value="GolangWeb" style="rounded=0;whiteSpace=wrap;html=1;" parent="1" vertex="1">
          <mxGeometry x="2090" y="400" width="120" height="40" as="geometry" />
        </mxCell>
        <mxCell id="ibbQbjTgb-cITDkVSMla-64" value="Golang标准库" style="rounded=0;whiteSpace=wrap;html=1;" parent="1" vertex="1">
          <mxGeometry x="2090" y="480" width="120" height="40" as="geometry" />
        </mxCell>
        <mxCell id="ibbQbjTgb-cITDkVSMla-65" value="GolangWebAdvanced" style="rounded=0;whiteSpace=wrap;html=1;" parent="1" vertex="1">
          <mxGeometry x="2090" y="560" width="120" height="40" as="geometry" />
        </mxCell>
        <mxCell id="ibbQbjTgb-cITDkVSMla-66" value="Gin" style="rounded=0;whiteSpace=wrap;html=1;" parent="1" vertex="1">
          <mxGeometry x="2090" y="960" width="120" height="40" as="geometry" />
        </mxCell>
        <mxCell id="ibbQbjTgb-cITDkVSMla-67" value="Gorm" style="rounded=0;whiteSpace=wrap;html=1;" parent="1" vertex="1">
          <mxGeometry x="1610" y="960" width="120" height="40" as="geometry" />
        </mxCell>
        <mxCell id="ibbQbjTgb-cITDkVSMla-68" value="FirstGoWeb" style="rounded=0;whiteSpace=wrap;html=1;" parent="1" vertex="1">
          <mxGeometry x="1850" y="1080" width="120" height="40" as="geometry" />
        </mxCell>
        <mxCell id="ibbQbjTgb-cITDkVSMla-69" value="" style="endArrow=none;html=1;strokeWidth=2;exitX=0.5;exitY=0;exitDx=0;exitDy=0;exitPerimeter=0;entryX=0.5;entryY=0;entryDx=0;entryDy=0;" parent="1" target="ibbQbjTgb-cITDkVSMla-6" edge="1">
          <mxGeometry width="50" height="50" relative="1" as="geometry">
            <mxPoint x="550" y="280" as="sourcePoint" />
            <mxPoint x="1070" y="470" as="targetPoint" />
          </mxGeometry>
        </mxCell>
        <mxCell id="ibbQbjTgb-cITDkVSMla-70" value="" style="endArrow=none;html=1;strokeWidth=2;exitX=0.5;exitY=0;exitDx=0;exitDy=0;exitPerimeter=0;entryX=0.5;entryY=0;entryDx=0;entryDy=0;" parent="1" edge="1">
          <mxGeometry width="50" height="50" relative="1" as="geometry">
            <mxPoint x="549.43" y="360.0000000000001" as="sourcePoint" />
            <mxPoint x="549.43" y="400" as="targetPoint" />
          </mxGeometry>
        </mxCell>
        <mxCell id="ibbQbjTgb-cITDkVSMla-71" value="" style="endArrow=none;html=1;strokeWidth=2;exitX=0.5;exitY=0;exitDx=0;exitDy=0;exitPerimeter=0;entryX=0.5;entryY=0;entryDx=0;entryDy=0;" parent="1" edge="1">
          <mxGeometry width="50" height="50" relative="1" as="geometry">
            <mxPoint x="549.9999999999999" y="440" as="sourcePoint" />
            <mxPoint x="549.9999999999999" y="480" as="targetPoint" />
          </mxGeometry>
        </mxCell>
        <mxCell id="ibbQbjTgb-cITDkVSMla-72" value="" style="endArrow=none;html=1;strokeWidth=2;exitX=0.5;exitY=0;exitDx=0;exitDy=0;exitPerimeter=0;entryX=0.5;entryY=0;entryDx=0;entryDy=0;" parent="1" edge="1">
          <mxGeometry width="50" height="50" relative="1" as="geometry">
            <mxPoint x="289.99999999999983" y="640" as="sourcePoint" />
            <mxPoint x="289.99999999999983" y="680" as="targetPoint" />
          </mxGeometry>
        </mxCell>
        <mxCell id="ibbQbjTgb-cITDkVSMla-73" value="" style="endArrow=none;html=1;strokeWidth=2;exitX=0.5;exitY=0;exitDx=0;exitDy=0;exitPerimeter=0;entryX=0.5;entryY=0;entryDx=0;entryDy=0;" parent="1" edge="1">
          <mxGeometry width="50" height="50" relative="1" as="geometry">
            <mxPoint x="809.9999999999998" y="640" as="sourcePoint" />
            <mxPoint x="809.9999999999998" y="680" as="targetPoint" />
          </mxGeometry>
        </mxCell>
        <mxCell id="ibbQbjTgb-cITDkVSMla-76" value="" style="endArrow=none;html=1;strokeWidth=2;exitX=0.5;exitY=0;exitDx=0;exitDy=0;exitPerimeter=0;entryX=0.5;entryY=0;entryDx=0;entryDy=0;" parent="1" edge="1">
          <mxGeometry width="50" height="50" relative="1" as="geometry">
            <mxPoint x="809.9999999999998" y="720" as="sourcePoint" />
            <mxPoint x="809.9999999999998" y="760" as="targetPoint" />
          </mxGeometry>
        </mxCell>
        <mxCell id="ibbQbjTgb-cITDkVSMla-79" value="" style="endArrow=none;html=1;strokeWidth=2;exitX=0.5;exitY=0;exitDx=0;exitDy=0;exitPerimeter=0;entryX=0.5;entryY=0;entryDx=0;entryDy=0;" parent="1" edge="1">
          <mxGeometry width="50" height="50" relative="1" as="geometry">
            <mxPoint x="1029.9999999999998" y="640" as="sourcePoint" />
            <mxPoint x="1029.9999999999998" y="680" as="targetPoint" />
          </mxGeometry>
        </mxCell>
        <mxCell id="ibbQbjTgb-cITDkVSMla-80" value="" style="endArrow=none;html=1;strokeWidth=2;exitX=0.5;exitY=0;exitDx=0;exitDy=0;exitPerimeter=0;entryX=0.5;entryY=0;entryDx=0;entryDy=0;" parent="1" edge="1">
          <mxGeometry width="50" height="50" relative="1" as="geometry">
            <mxPoint x="619.7099999999998" y="1120" as="sourcePoint" />
            <mxPoint x="619.7099999999998" y="1160" as="targetPoint" />
          </mxGeometry>
        </mxCell>
        <mxCell id="ibbQbjTgb-cITDkVSMla-81" value="" style="endArrow=none;html=1;strokeWidth=2;exitX=0.5;exitY=0;exitDx=0;exitDy=0;exitPerimeter=0;" parent="1" edge="1">
          <mxGeometry width="50" height="50" relative="1" as="geometry">
            <mxPoint x="419.7099999999998" y="1320" as="sourcePoint" />
            <mxPoint x="420" y="1400" as="targetPoint" />
          </mxGeometry>
        </mxCell>
        <mxCell id="ibbQbjTgb-cITDkVSMla-82" value="" style="strokeWidth=2;html=1;shape=mxgraph.flowchart.annotation_2;align=left;labelPosition=right;pointerEvents=1;direction=south;" parent="1" vertex="1">
          <mxGeometry x="420" y="1200" width="400" height="80" as="geometry" />
        </mxCell>
        <mxCell id="ibbQbjTgb-cITDkVSMla-87" value="" style="strokeWidth=2;html=1;shape=mxgraph.flowchart.annotation_2;align=left;labelPosition=right;pointerEvents=1;direction=south;" parent="1" vertex="1">
          <mxGeometry x="660" y="1320" width="320" height="80" as="geometry" />
        </mxCell>
        <mxCell id="ibbQbjTgb-cITDkVSMla-91" value="" style="endArrow=none;html=1;strokeWidth=2;exitX=0.5;exitY=0;exitDx=0;exitDy=0;exitPerimeter=0;entryX=0.5;entryY=0;entryDx=0;entryDy=0;" parent="1" edge="1">
          <mxGeometry width="50" height="50" relative="1" as="geometry">
            <mxPoint x="819.9999999999998" y="1360" as="sourcePoint" />
            <mxPoint x="819.9999999999998" y="1400" as="targetPoint" />
          </mxGeometry>
        </mxCell>
        <mxCell id="ibbQbjTgb-cITDkVSMla-92" value="" style="strokeWidth=2;html=1;shape=mxgraph.flowchart.annotation_1;align=left;pointerEvents=1;direction=north;" parent="1" vertex="1">
          <mxGeometry x="660" y="1440" width="160" height="80" as="geometry" />
        </mxCell>
        <mxCell id="ibbQbjTgb-cITDkVSMla-93" value="" style="strokeWidth=2;html=1;shape=mxgraph.flowchart.annotation_1;align=left;pointerEvents=1;direction=north;" parent="1" vertex="1">
          <mxGeometry x="820" y="1440" width="160" height="80" as="geometry" />
        </mxCell>
        <mxCell id="ibbQbjTgb-cITDkVSMla-96" value="" style="endArrow=none;html=1;strokeWidth=2;exitX=0.5;exitY=0;exitDx=0;exitDy=0;exitPerimeter=0;entryX=0.5;entryY=0;entryDx=0;entryDy=0;" parent="1" edge="1">
          <mxGeometry width="50" height="50" relative="1" as="geometry">
            <mxPoint x="419.5199999999998" y="1440" as="sourcePoint" />
            <mxPoint x="419.5199999999998" y="1480" as="targetPoint" />
          </mxGeometry>
        </mxCell>
        <mxCell id="ibbQbjTgb-cITDkVSMla-98" value="" style="endArrow=none;html=1;strokeWidth=2;exitX=0.5;exitY=0;exitDx=0;exitDy=0;exitPerimeter=0;entryX=0.5;entryY=0;entryDx=0;entryDy=0;" parent="1" edge="1">
          <mxGeometry width="50" height="50" relative="1" as="geometry">
            <mxPoint x="419.5199999999998" y="1480" as="sourcePoint" />
            <mxPoint x="419.5199999999998" y="1520" as="targetPoint" />
          </mxGeometry>
        </mxCell>
        <mxCell id="ibbQbjTgb-cITDkVSMla-99" value="" style="endArrow=none;html=1;strokeWidth=2;entryX=0;entryY=0;entryDx=0;entryDy=0;entryPerimeter=0;" parent="1" target="ibbQbjTgb-cITDkVSMla-92" edge="1">
          <mxGeometry width="50" height="50" relative="1" as="geometry">
            <mxPoint x="420" y="1520" as="sourcePoint" />
            <mxPoint x="640" y="1570" as="targetPoint" />
          </mxGeometry>
        </mxCell>
        <mxCell id="ibbQbjTgb-cITDkVSMla-100" value="" style="strokeWidth=2;html=1;shape=mxgraph.flowchart.annotation_1;align=left;pointerEvents=1;direction=south;" parent="1" vertex="1">
          <mxGeometry x="420" y="1640" width="400" height="40" as="geometry" />
        </mxCell>
        <mxCell id="ibbQbjTgb-cITDkVSMla-101" value="" style="endArrow=none;html=1;strokeWidth=2;exitX=0.5;exitY=0;exitDx=0;exitDy=0;exitPerimeter=0;entryX=0.5;entryY=0;entryDx=0;entryDy=0;" parent="1" edge="1">
          <mxGeometry width="50" height="50" relative="1" as="geometry">
            <mxPoint x="629.9999999999998" y="1520" as="sourcePoint" />
            <mxPoint x="629.9999999999998" y="1560" as="targetPoint" />
          </mxGeometry>
        </mxCell>
        <mxCell id="ibbQbjTgb-cITDkVSMla-102" value="" style="strokeWidth=2;html=1;shape=mxgraph.flowchart.annotation_1;align=left;pointerEvents=1;direction=south;" parent="1" vertex="1">
          <mxGeometry x="100" y="1840" width="160" height="40" as="geometry" />
        </mxCell>
        <mxCell id="ibbQbjTgb-cITDkVSMla-103" value="" style="strokeWidth=2;html=1;shape=mxgraph.flowchart.annotation_1;align=left;pointerEvents=1;direction=south;" parent="1" vertex="1">
          <mxGeometry x="260" y="1840" width="160" height="40" as="geometry" />
        </mxCell>
        <mxCell id="ibbQbjTgb-cITDkVSMla-104" value="" style="strokeWidth=2;html=1;shape=mxgraph.flowchart.annotation_1;align=left;pointerEvents=1;direction=south;" parent="1" vertex="1">
          <mxGeometry x="420" y="1840" width="160" height="40" as="geometry" />
        </mxCell>
        <mxCell id="ibbQbjTgb-cITDkVSMla-105" value="" style="strokeWidth=2;html=1;shape=mxgraph.flowchart.annotation_1;align=left;pointerEvents=1;direction=south;" parent="1" vertex="1">
          <mxGeometry x="580" y="1840" width="160" height="40" as="geometry" />
        </mxCell>
        <mxCell id="ibbQbjTgb-cITDkVSMla-106" value="" style="endArrow=none;html=1;strokeWidth=2;exitX=0.5;exitY=0;exitDx=0;exitDy=0;exitPerimeter=0;entryX=0.5;entryY=0;entryDx=0;entryDy=0;" parent="1" edge="1">
          <mxGeometry width="50" height="50" relative="1" as="geometry">
            <mxPoint x="419.51999999999975" y="1720" as="sourcePoint" />
            <mxPoint x="419.51999999999975" y="1760" as="targetPoint" />
          </mxGeometry>
        </mxCell>
        <mxCell id="ibbQbjTgb-cITDkVSMla-107" value="" style="endArrow=none;html=1;strokeWidth=2;exitX=0.5;exitY=0;exitDx=0;exitDy=0;exitPerimeter=0;entryX=0.5;entryY=0;entryDx=0;entryDy=0;" parent="1" edge="1">
          <mxGeometry width="50" height="50" relative="1" as="geometry">
            <mxPoint x="419.9999999999998" y="1800" as="sourcePoint" />
            <mxPoint x="419.9999999999998" y="1840" as="targetPoint" />
          </mxGeometry>
        </mxCell>
        <mxCell id="ibbQbjTgb-cITDkVSMla-108" value="" style="strokeWidth=2;html=1;shape=mxgraph.flowchart.annotation_1;align=left;pointerEvents=1;direction=north;" parent="1" vertex="1">
          <mxGeometry x="580" y="1920" width="160" height="40" as="geometry" />
        </mxCell>
        <mxCell id="ibbQbjTgb-cITDkVSMla-109" value="" style="strokeWidth=2;html=1;shape=mxgraph.flowchart.annotation_1;align=left;pointerEvents=1;direction=north;" parent="1" vertex="1">
          <mxGeometry x="420" y="1920" width="160" height="40" as="geometry" />
        </mxCell>
        <mxCell id="ibbQbjTgb-cITDkVSMla-110" value="" style="strokeWidth=2;html=1;shape=mxgraph.flowchart.annotation_1;align=left;pointerEvents=1;direction=north;" parent="1" vertex="1">
          <mxGeometry x="260" y="1920" width="160" height="40" as="geometry" />
        </mxCell>
        <mxCell id="ibbQbjTgb-cITDkVSMla-111" value="" style="strokeWidth=2;html=1;shape=mxgraph.flowchart.annotation_1;align=left;pointerEvents=1;direction=north;" parent="1" vertex="1">
          <mxGeometry x="100" y="1920" width="160" height="40" as="geometry" />
        </mxCell>
        <mxCell id="ibbQbjTgb-cITDkVSMla-112" value="" style="endArrow=none;html=1;strokeWidth=2;exitX=0.5;exitY=0;exitDx=0;exitDy=0;exitPerimeter=0;entryX=0.5;entryY=0;entryDx=0;entryDy=0;" parent="1" edge="1">
          <mxGeometry width="50" height="50" relative="1" as="geometry">
            <mxPoint x="419.70999999999975" y="1960" as="sourcePoint" />
            <mxPoint x="419.70999999999975" y="2000" as="targetPoint" />
          </mxGeometry>
        </mxCell>
        <mxCell id="ibbQbjTgb-cITDkVSMla-113" value="" style="strokeWidth=2;html=1;shape=mxgraph.flowchart.annotation_1;align=left;pointerEvents=1;direction=south;" parent="1" vertex="1">
          <mxGeometry x="1030" y="380" width="160" height="20" as="geometry" />
        </mxCell>
        <mxCell id="ibbQbjTgb-cITDkVSMla-114" value="" style="strokeWidth=2;html=1;shape=mxgraph.flowchart.annotation_1;align=left;pointerEvents=1;direction=south;" parent="1" vertex="1">
          <mxGeometry x="1190" y="380" width="160" height="20" as="geometry" />
        </mxCell>
        <mxCell id="ibbQbjTgb-cITDkVSMla-115" value="" style="strokeWidth=2;html=1;shape=mxgraph.flowchart.annotation_1;align=left;pointerEvents=1;direction=south;" parent="1" vertex="1">
          <mxGeometry x="1350" y="380" width="160" height="20" as="geometry" />
        </mxCell>
        <mxCell id="ibbQbjTgb-cITDkVSMla-116" value="" style="strokeWidth=2;html=1;shape=mxgraph.flowchart.annotation_1;align=left;pointerEvents=1;direction=south;" parent="1" vertex="1">
          <mxGeometry x="1510" y="380" width="160" height="20" as="geometry" />
        </mxCell>
        <mxCell id="ibbQbjTgb-cITDkVSMla-117" value="" style="strokeWidth=2;html=1;shape=mxgraph.flowchart.annotation_1;align=left;pointerEvents=1;direction=north;" parent="1" vertex="1">
          <mxGeometry x="1030" y="440" width="160" height="20" as="geometry" />
        </mxCell>
        <mxCell id="ibbQbjTgb-cITDkVSMla-118" value="" style="strokeWidth=2;html=1;shape=mxgraph.flowchart.annotation_1;align=left;pointerEvents=1;direction=north;" parent="1" vertex="1">
          <mxGeometry x="1190" y="440" width="160" height="20" as="geometry" />
        </mxCell>
        <mxCell id="ibbQbjTgb-cITDkVSMla-119" value="" style="strokeWidth=2;html=1;shape=mxgraph.flowchart.annotation_1;align=left;pointerEvents=1;direction=north;" parent="1" vertex="1">
          <mxGeometry x="1350" y="440" width="160" height="20" as="geometry" />
        </mxCell>
        <mxCell id="ibbQbjTgb-cITDkVSMla-120" value="" style="strokeWidth=2;html=1;shape=mxgraph.flowchart.annotation_1;align=left;pointerEvents=1;direction=north;" parent="1" vertex="1">
          <mxGeometry x="1510" y="440" width="160" height="20" as="geometry" />
        </mxCell>
        <mxCell id="ibbQbjTgb-cITDkVSMla-121" value="" style="endArrow=none;html=1;strokeWidth=2;entryX=0.5;entryY=1;entryDx=0;entryDy=0;exitX=0;exitY=0;exitDx=0;exitDy=0;exitPerimeter=0;" parent="1" source="ibbQbjTgb-cITDkVSMla-114" target="ibbQbjTgb-cITDkVSMla-9" edge="1">
          <mxGeometry width="50" height="50" relative="1" as="geometry">
            <mxPoint x="1170" y="520" as="sourcePoint" />
            <mxPoint x="1220" y="470" as="targetPoint" />
          </mxGeometry>
        </mxCell>
        <mxCell id="ibbQbjTgb-cITDkVSMla-122" value="" style="endArrow=none;html=1;strokeWidth=2;exitX=0;exitY=0;exitDx=0;exitDy=0;exitPerimeter=0;" parent="1" source="ibbQbjTgb-cITDkVSMla-119" target="ibbQbjTgb-cITDkVSMla-123" edge="1">
          <mxGeometry width="50" height="50" relative="1" as="geometry">
            <mxPoint x="1170" y="520" as="sourcePoint" />
            <mxPoint x="1220" y="470" as="targetPoint" />
          </mxGeometry>
        </mxCell>
        <mxCell id="ibbQbjTgb-cITDkVSMla-123" value="" style="strokeWidth=2;html=1;shape=mxgraph.flowchart.annotation_1;align=left;pointerEvents=1;direction=south;" parent="1" vertex="1">
          <mxGeometry x="1190" y="490" width="320" height="30" as="geometry" />
        </mxCell>
        <mxCell id="ibbQbjTgb-cITDkVSMla-124" value="" style="strokeWidth=2;html=1;shape=mxgraph.flowchart.annotation_1;align=left;pointerEvents=1;direction=south;" parent="1" vertex="1">
          <mxGeometry x="1030" y="580" width="320" height="20" as="geometry" />
        </mxCell>
        <mxCell id="ibbQbjTgb-cITDkVSMla-126" value="" style="endArrow=none;html=1;strokeWidth=2;exitX=0;exitY=0.5;exitDx=0;exitDy=0;exitPerimeter=0;entryX=0.5;entryY=1;entryDx=0;entryDy=0;" parent="1" source="ibbQbjTgb-cITDkVSMla-124" target="ibbQbjTgb-cITDkVSMla-29" edge="1">
          <mxGeometry width="50" height="50" relative="1" as="geometry">
            <mxPoint x="1170" y="570" as="sourcePoint" />
            <mxPoint x="1220" y="520" as="targetPoint" />
          </mxGeometry>
        </mxCell>
        <mxCell id="ibbQbjTgb-cITDkVSMla-127" value="" style="endArrow=none;html=1;strokeWidth=2;exitX=0.5;exitY=0;exitDx=0;exitDy=0;exitPerimeter=0;entryX=0.5;entryY=0;entryDx=0;entryDy=0;" parent="1" edge="1">
          <mxGeometry width="50" height="50" relative="1" as="geometry">
            <mxPoint x="1029.17" y="720" as="sourcePoint" />
            <mxPoint x="1029.17" y="759.9999999999998" as="targetPoint" />
          </mxGeometry>
        </mxCell>
        <mxCell id="ibbQbjTgb-cITDkVSMla-129" value="" style="endArrow=none;html=1;strokeWidth=2;exitX=0.5;exitY=0;exitDx=0;exitDy=0;exitPerimeter=0;entryX=0.5;entryY=0;entryDx=0;entryDy=0;" parent="1" edge="1">
          <mxGeometry width="50" height="50" relative="1" as="geometry">
            <mxPoint x="1030" y="799.9999999999998" as="sourcePoint" />
            <mxPoint x="1030" y="839.9999999999998" as="targetPoint" />
          </mxGeometry>
        </mxCell>
        <mxCell id="ibbQbjTgb-cITDkVSMla-130" value="" style="endArrow=none;html=1;strokeWidth=2;exitX=0.5;exitY=0;exitDx=0;exitDy=0;exitPerimeter=0;entryX=0.5;entryY=0;entryDx=0;entryDy=0;" parent="1" edge="1">
          <mxGeometry width="50" height="50" relative="1" as="geometry">
            <mxPoint x="1510" y="559.9999999999998" as="sourcePoint" />
            <mxPoint x="1510" y="599.9999999999998" as="targetPoint" />
          </mxGeometry>
        </mxCell>
        <mxCell id="ibbQbjTgb-cITDkVSMla-131" value="" style="endArrow=none;html=1;strokeWidth=2;exitX=0.5;exitY=0;exitDx=0;exitDy=0;exitPerimeter=0;entryX=0.5;entryY=0;entryDx=0;entryDy=0;" parent="1" edge="1">
          <mxGeometry width="50" height="50" relative="1" as="geometry">
            <mxPoint x="1510" y="639.9999999999998" as="sourcePoint" />
            <mxPoint x="1510" y="679.9999999999998" as="targetPoint" />
          </mxGeometry>
        </mxCell>
        <mxCell id="ibbQbjTgb-cITDkVSMla-132" value="" style="endArrow=none;html=1;strokeWidth=2;exitX=0.5;exitY=0;exitDx=0;exitDy=0;exitPerimeter=0;entryX=0.5;entryY=0;entryDx=0;entryDy=0;" parent="1" edge="1">
          <mxGeometry width="50" height="50" relative="1" as="geometry">
            <mxPoint x="1510" y="719.9999999999998" as="sourcePoint" />
            <mxPoint x="1510" y="759.9999999999998" as="targetPoint" />
          </mxGeometry>
        </mxCell>
        <mxCell id="ibbQbjTgb-cITDkVSMla-133" value="" style="endArrow=none;html=1;strokeWidth=2;exitX=0.5;exitY=0;exitDx=0;exitDy=0;exitPerimeter=0;entryX=0.5;entryY=0;entryDx=0;entryDy=0;" parent="1" edge="1">
          <mxGeometry width="50" height="50" relative="1" as="geometry">
            <mxPoint x="1510" y="799.9999999999998" as="sourcePoint" />
            <mxPoint x="1510" y="839.9999999999998" as="targetPoint" />
          </mxGeometry>
        </mxCell>
        <mxCell id="ibbQbjTgb-cITDkVSMla-136" value="" style="strokeWidth=2;html=1;shape=mxgraph.flowchart.annotation_2;align=left;labelPosition=right;pointerEvents=1;direction=north;" parent="1" vertex="1">
          <mxGeometry x="1670" y="1000" width="480" height="80" as="geometry" />
        </mxCell>
        <mxCell id="ibbQbjTgb-cITDkVSMla-137" value="" style="endArrow=none;html=1;strokeWidth=2;exitX=0.5;exitY=0;exitDx=0;exitDy=0;exitPerimeter=0;entryX=0.5;entryY=0;entryDx=0;entryDy=0;" parent="1" edge="1">
          <mxGeometry width="50" height="50" relative="1" as="geometry">
            <mxPoint x="2150" y="279.9999999999998" as="sourcePoint" />
            <mxPoint x="2150" y="319.9999999999998" as="targetPoint" />
          </mxGeometry>
        </mxCell>
        <mxCell id="ibbQbjTgb-cITDkVSMla-138" value="" style="endArrow=none;html=1;strokeWidth=2;exitX=0.5;exitY=0;exitDx=0;exitDy=0;exitPerimeter=0;entryX=0.5;entryY=0;entryDx=0;entryDy=0;" parent="1" edge="1">
          <mxGeometry width="50" height="50" relative="1" as="geometry">
            <mxPoint x="2149.17" y="359.9999999999998" as="sourcePoint" />
            <mxPoint x="2149.17" y="399.9999999999998" as="targetPoint" />
          </mxGeometry>
        </mxCell>
        <mxCell id="ibbQbjTgb-cITDkVSMla-139" value="" style="endArrow=none;html=1;strokeWidth=2;exitX=0.5;exitY=0;exitDx=0;exitDy=0;exitPerimeter=0;entryX=0.5;entryY=0;entryDx=0;entryDy=0;" parent="1" edge="1">
          <mxGeometry width="50" height="50" relative="1" as="geometry">
            <mxPoint x="1510" y="559.9999999999998" as="sourcePoint" />
            <mxPoint x="1510" y="599.9999999999998" as="targetPoint" />
          </mxGeometry>
        </mxCell>
        <mxCell id="ibbQbjTgb-cITDkVSMla-140" value="" style="endArrow=none;html=1;strokeWidth=2;exitX=0.5;exitY=0;exitDx=0;exitDy=0;exitPerimeter=0;entryX=0.5;entryY=0;entryDx=0;entryDy=0;" parent="1" edge="1">
          <mxGeometry width="50" height="50" relative="1" as="geometry">
            <mxPoint x="2150" y="439.9999999999998" as="sourcePoint" />
            <mxPoint x="2150" y="479.9999999999998" as="targetPoint" />
          </mxGeometry>
        </mxCell>
        <mxCell id="ibbQbjTgb-cITDkVSMla-145" value="" style="endArrow=none;html=1;strokeWidth=2;exitX=0.5;exitY=0;exitDx=0;exitDy=0;exitPerimeter=0;entryX=0.5;entryY=0;entryDx=0;entryDy=0;" parent="1" edge="1">
          <mxGeometry width="50" height="50" relative="1" as="geometry">
            <mxPoint x="2150" y="519.9999999999998" as="sourcePoint" />
            <mxPoint x="2150" y="559.9999999999998" as="targetPoint" />
          </mxGeometry>
        </mxCell>
        <mxCell id="ibbQbjTgb-cITDkVSMla-146" value="Docker" style="rounded=0;whiteSpace=wrap;html=1;" parent="1" vertex="1">
          <mxGeometry x="1310" y="2120" width="80" height="40" as="geometry" />
        </mxCell>
        <mxCell id="ibbQbjTgb-cITDkVSMla-148" value="" style="endArrow=none;html=1;strokeWidth=2;exitX=0.5;exitY=1;exitDx=0;exitDy=0;" parent="1" source="ibbQbjTgb-cITDkVSMla-61" edge="1">
          <mxGeometry width="50" height="50" relative="1" as="geometry">
            <mxPoint x="760" y="2140" as="sourcePoint" />
            <mxPoint x="420" y="2080" as="targetPoint" />
          </mxGeometry>
        </mxCell>
        <mxCell id="ibbQbjTgb-cITDkVSMla-149" value="" style="endArrow=none;html=1;strokeWidth=2;" parent="1" edge="1">
          <mxGeometry width="50" height="50" relative="1" as="geometry">
            <mxPoint x="420" y="2080" as="sourcePoint" />
            <mxPoint x="1350" y="2080" as="targetPoint" />
          </mxGeometry>
        </mxCell>
        <mxCell id="ibbQbjTgb-cITDkVSMla-150" value="" style="endArrow=none;html=1;strokeWidth=2;" parent="1" edge="1">
          <mxGeometry width="50" height="50" relative="1" as="geometry">
            <mxPoint x="1910" y="2080" as="sourcePoint" />
            <mxPoint x="1350" y="2080" as="targetPoint" />
          </mxGeometry>
        </mxCell>
        <mxCell id="ibbQbjTgb-cITDkVSMla-151" value="" style="endArrow=none;html=1;strokeWidth=2;exitX=0.5;exitY=1;exitDx=0;exitDy=0;" parent="1" source="ibbQbjTgb-cITDkVSMla-68" edge="1">
          <mxGeometry width="50" height="50" relative="1" as="geometry">
            <mxPoint x="2070" y="730" as="sourcePoint" />
            <mxPoint x="1910" y="2080" as="targetPoint" />
          </mxGeometry>
        </mxCell>
        <mxCell id="ibbQbjTgb-cITDkVSMla-153" value="" style="endArrow=none;html=1;strokeWidth=2;exitX=0.5;exitY=1;exitDx=0;exitDy=0;" parent="1" edge="1">
          <mxGeometry width="50" height="50" relative="1" as="geometry">
            <mxPoint x="1349.31" y="2080" as="sourcePoint" />
            <mxPoint x="1349.31" y="2120" as="targetPoint" />
          </mxGeometry>
        </mxCell>
        <mxCell id="ibbQbjTgb-cITDkVSMla-154" value="K8s" style="rounded=0;whiteSpace=wrap;html=1;" parent="1" vertex="1">
          <mxGeometry x="1310" y="2200" width="80" height="40" as="geometry" />
        </mxCell>
        <mxCell id="ibbQbjTgb-cITDkVSMla-155" value="" style="endArrow=none;html=1;strokeWidth=2;exitX=0.5;exitY=0;exitDx=0;exitDy=0;entryX=0.5;entryY=1;entryDx=0;entryDy=0;" parent="1" source="ibbQbjTgb-cITDkVSMla-154" target="ibbQbjTgb-cITDkVSMla-146" edge="1">
          <mxGeometry width="50" height="50" relative="1" as="geometry">
            <mxPoint x="1320" y="2150" as="sourcePoint" />
            <mxPoint x="1370" y="2100" as="targetPoint" />
          </mxGeometry>
        </mxCell>
        <mxCell id="ibbQbjTgb-cITDkVSMla-156" value="阿里巴巴开发者手册" style="rounded=0;whiteSpace=wrap;html=1;" parent="1" vertex="1">
          <mxGeometry x="1610" y="520" width="120" height="40" as="geometry" />
        </mxCell>
        <mxCell id="ibbQbjTgb-cITDkVSMla-157" value="" style="endArrow=none;html=1;strokeWidth=2;exitX=0.5;exitY=0;exitDx=0;exitDy=0;entryX=0;entryY=1;entryDx=0;entryDy=0;entryPerimeter=0;" parent="1" source="ibbQbjTgb-cITDkVSMla-156" target="ibbQbjTgb-cITDkVSMla-120" edge="1">
          <mxGeometry width="50" height="50" relative="1" as="geometry">
            <mxPoint x="1640" y="630" as="sourcePoint" />
            <mxPoint x="1690" y="580" as="targetPoint" />
          </mxGeometry>
        </mxCell>
        <mxCell id="ibbQbjTgb-cITDkVSMla-158" value="" style="strokeWidth=2;html=1;shape=mxgraph.flowchart.annotation_2;align=left;labelPosition=right;pointerEvents=1;direction=south;" parent="1" vertex="1">
          <mxGeometry x="1350" y="880" width="320" height="80" as="geometry" />
        </mxCell>
        <mxCell id="ibbQbjTgb-cITDkVSMla-160" value="" style="endArrow=none;html=1;strokeWidth=2;exitX=0.5;exitY=0;exitDx=0;exitDy=0;exitPerimeter=0;entryX=0.5;entryY=0;entryDx=0;entryDy=0;" parent="1" edge="1">
          <mxGeometry width="50" height="50" relative="1" as="geometry">
            <mxPoint x="1510" y="920" as="sourcePoint" />
            <mxPoint x="1510" y="959.9999999999998" as="targetPoint" />
          </mxGeometry>
        </mxCell>
        <mxCell id="ibbQbjTgb-cITDkVSMla-161" value="" style="endArrow=none;html=1;strokeWidth=2;exitX=0.5;exitY=0;exitDx=0;exitDy=0;entryX=0.5;entryY=1;entryDx=0;entryDy=0;" parent="1" source="ibbQbjTgb-cITDkVSMla-66" target="ibbQbjTgb-cITDkVSMla-65" edge="1">
          <mxGeometry width="50" height="50" relative="1" as="geometry">
            <mxPoint x="1940" y="490" as="sourcePoint" />
            <mxPoint x="1990" y="440" as="targetPoint" />
          </mxGeometry>
        </mxCell>
        <mxCell id="ibbQbjTgb-cITDkVSMla-163" value="" style="endArrow=none;html=1;strokeWidth=2;exitX=0.5;exitY=0;exitDx=0;exitDy=0;exitPerimeter=0;" parent="1" edge="1">
          <mxGeometry width="50" height="50" relative="1" as="geometry">
            <mxPoint x="1029.9999999999998" y="960" as="sourcePoint" />
            <mxPoint x="1030" y="1040" as="targetPoint" />
          </mxGeometry>
        </mxCell>
        <mxCell id="ibbQbjTgb-cITDkVSMla-165" value="" style="endArrow=none;html=1;strokeWidth=2;exitX=0.5;exitY=0;exitDx=0;exitDy=0;exitPerimeter=0;entryX=0.5;entryY=0;entryDx=0;entryDy=0;" parent="1" edge="1">
          <mxGeometry width="50" height="50" relative="1" as="geometry">
            <mxPoint x="1349.6599999999999" y="1000" as="sourcePoint" />
            <mxPoint x="1349.6599999999999" y="1040" as="targetPoint" />
          </mxGeometry>
        </mxCell>
        <mxCell id="ibbQbjTgb-cITDkVSMla-166" value="" style="endArrow=none;html=1;strokeWidth=2;exitX=0.5;exitY=0;exitDx=0;exitDy=0;exitPerimeter=0;entryX=0.5;entryY=0;entryDx=0;entryDy=0;" parent="1" edge="1">
          <mxGeometry width="50" height="50" relative="1" as="geometry">
            <mxPoint x="1509.9999999999998" y="1000.0000000000002" as="sourcePoint" />
            <mxPoint x="1509.9999999999998" y="1040.0000000000002" as="targetPoint" />
          </mxGeometry>
        </mxCell>
        <mxCell id="ibbQbjTgb-cITDkVSMla-168" value="" style="endArrow=none;html=1;strokeWidth=2;" parent="1" edge="1">
          <mxGeometry width="50" height="50" relative="1" as="geometry">
            <mxPoint x="290" y="1040" as="sourcePoint" />
            <mxPoint x="1510" y="1040" as="targetPoint" />
          </mxGeometry>
        </mxCell>
        <mxCell id="ibbQbjTgb-cITDkVSMla-169" value="" style="endArrow=none;html=1;strokeWidth=2;exitX=0.5;exitY=0;exitDx=0;exitDy=0;entryX=0.5;entryY=1;entryDx=0;entryDy=0;" parent="1" source="ibbQbjTgb-cITDkVSMla-15" target="ibbQbjTgb-cITDkVSMla-14" edge="1">
          <mxGeometry width="50" height="50" relative="1" as="geometry">
            <mxPoint x="520" y="890" as="sourcePoint" />
            <mxPoint x="570" y="840" as="targetPoint" />
          </mxGeometry>
        </mxCell>
        <mxCell id="ibbQbjTgb-cITDkVSMla-170" value="" style="endArrow=none;html=1;strokeWidth=2;exitX=0.5;exitY=0;exitDx=0;exitDy=0;exitPerimeter=0;entryX=0.5;entryY=0;entryDx=0;entryDy=0;" parent="1" edge="1">
          <mxGeometry width="50" height="50" relative="1" as="geometry">
            <mxPoint x="289.9999999999998" y="720" as="sourcePoint" />
            <mxPoint x="289.9999999999998" y="760" as="targetPoint" />
          </mxGeometry>
        </mxCell>
        <mxCell id="ibbQbjTgb-cITDkVSMla-172" value="分布式解决" style="rounded=0;whiteSpace=wrap;html=1;" parent="1" vertex="1">
          <mxGeometry x="570" y="1560" width="120" height="40" as="geometry" />
        </mxCell>
        <mxCell id="ibbQbjTgb-cITDkVSMla-173" value="" style="endArrow=none;html=1;strokeWidth=2;exitX=0.5;exitY=0;exitDx=0;exitDy=0;exitPerimeter=0;entryX=0.5;entryY=0;entryDx=0;entryDy=0;" parent="1" edge="1">
          <mxGeometry width="50" height="50" relative="1" as="geometry">
            <mxPoint x="629.7099999999998" y="1600" as="sourcePoint" />
            <mxPoint x="629.7099999999998" y="1640" as="targetPoint" />
          </mxGeometry>
        </mxCell>
        <mxCell id="ibbQbjTgb-cITDkVSMla-177" value="SpringWebFlux" style="rounded=0;whiteSpace=wrap;html=1;" parent="1" vertex="1">
          <mxGeometry x="680" y="880" width="120" height="40" as="geometry" />
        </mxCell>
        <mxCell id="ibbQbjTgb-cITDkVSMla-178" value="" style="endArrow=none;html=1;strokeWidth=2;exitX=0.5;exitY=1;exitDx=0;exitDy=0;" parent="1" source="ibbQbjTgb-cITDkVSMla-15" edge="1">
          <mxGeometry width="50" height="50" relative="1" as="geometry">
            <mxPoint x="620" y="960" as="sourcePoint" />
            <mxPoint x="290" y="1040" as="targetPoint" />
          </mxGeometry>
        </mxCell>
        <mxCell id="ibbQbjTgb-cITDkVSMla-179" value="" style="strokeWidth=2;html=1;shape=mxgraph.flowchart.annotation_2;align=left;labelPosition=right;pointerEvents=1;direction=south;" parent="1" vertex="1">
          <mxGeometry x="740" y="800" width="140" height="80" as="geometry" />
        </mxCell>
        <mxCell id="cD9aTVfY0jgRY54I0eyp-1" value="" style="endArrow=none;html=1;entryX=0.5;entryY=0;entryDx=0;entryDy=0;strokeWidth=2;" edge="1" parent="1" target="ibbQbjTgb-cITDkVSMla-23">
          <mxGeometry width="50" height="50" relative="1" as="geometry">
            <mxPoint x="620" y="1040" as="sourcePoint" />
            <mxPoint x="1110" y="1000" as="targetPoint" />
          </mxGeometry>
        </mxCell>
      </root>
    </mxGraphModel>
  </diagram>
</mxfile>
